# xmcd
#
# Track frame offsets:
# 150
# 17245
# 35152
# 50902
# 66477
# 84877
# 101655
# 115952
# 130222
# 146737
# 163790
# 180402
# 196242
# 212460
#
# Disc length: 3044 seconds
#
#
# Revision: 2
# Processed by: cddbd v1.5.2PL0 Copyright (c) Steve Scherf et al.
# Submitted via: FreeRIP 2.951 
#
DISCID=cd0be20e
DTITLE=Various Artist - Maximum Dance 99-07
DYEAR=1999
DGENRE=Pop
TTITLE0=Watergate - Maid Of Orleans (The Battle Ii)
TTITLE1=Dj Sakin and Friends - Dragonfly
TTITLE2=Lightforce - Take Your Time (The Riddle '99)
TTITLE3=Dj Visage Feat. Clarissa - The Return
TTITLE4=Atb - Killer
TTITLE5=Lamar - Fly (The Lonely Shepherd)
TTITLE6=Central Seven - Missing
TTITLE7=Future Breeze - Cruel World
TTITLE8=Art Bizarre - Drop In To Me
TTITLE9=Taucher - Bizarre
TTITLE10=Mellow Trax - Mistery In Space
TTITLE11=Sunbeam - Outside World
TTITLE12=Avant Garde - Get Down
TTITLE13=Jet Doctor - Work It Like A Sexmachine
EXTD=
EXTT0=
EXTT1=
EXTT2=
EXTT3=
EXTT4=
EXTT5=
EXTT6=
EXTT7=
EXTT8=
EXTT9=
EXTT10=
EXTT11=
EXTT12=
EXTT13=
PLAYORDER=
